<?xml version="1.0" standalone="no"?><!DOCTYPE svg PUBLIC "-//W3C//DTD SVG 1.1//EN" "http://www.w3.org/Graphics/SVG/1.1/DTD/svg11.dtd"><svg t="1536562227585" class="icon" style="" viewBox="0 0 1024 1024" version="1.1" xmlns="http://www.w3.org/2000/svg" p-id="21799" xmlns:xlink="http://www.w3.org/1999/xlink" width="64" height="64"><defs><style type="text/css"></style></defs><path d="M387.2 154.688v294.656l507.136-165.312-6.72-245.376z" fill="#FAD97F" p-id="21800"></path><path d="M384.512 939.712a16 16 0 0 1-16-16V148.48c0-7.36 4.992-13.696 12.096-15.552L887.744 5.376a16.384 16.384 0 0 1 13.696 2.88c3.968 3.008 6.208 7.68 6.208 12.608v713.344a16 16 0 0 1-32 0V41.472L400.512 160.96v762.688a16 16 0 0 1-16 16.064z" fill="" p-id="21801"></path><path d="M119.808 923.712a132.352 82.24 0 1 0 264.704 0 132.352 82.24 0 1 0-264.704 0Z" fill="#9DE8F7" p-id="21802"></path><path d="M252.16 1021.952c-83.2 0-148.352-43.2-148.352-98.24 0-54.976 65.216-98.112 148.352-98.112s148.352 43.136 148.352 98.112c0 55.04-65.152 98.24-148.352 98.24z m0-164.416c-63.104 0-116.352 30.336-116.352 66.112 0 35.968 53.312 66.24 116.352 66.24 63.04 0 116.352-30.336 116.352-66.24 0-35.776-53.248-66.112-116.352-66.112z" fill="#020202" p-id="21803"></path><path d="M627.008 728.32a132.288 82.24 0 1 0 264.576 0 132.288 82.24 0 1 0-264.576 0Z" fill="#F2385A" p-id="21804"></path><path d="M759.296 826.56c-83.2 0-148.288-43.2-148.288-98.24s65.152-98.176 148.288-98.176 148.288 43.136 148.288 98.176-65.088 98.24-148.288 98.24z m0-164.416c-63.04 0-116.288 30.336-116.288 66.176 0 35.968 53.248 66.24 116.288 66.24s116.288-30.336 116.288-66.24c0.064-35.904-53.184-66.176-116.288-66.176z" fill="#020202" p-id="21805"></path><path d="M396.544 479.936a16 16 0 0 1-5.056-31.168l488.384-163.392a16 16 0 1 1 10.112 30.336L401.6 479.104a14.976 14.976 0 0 1-5.056 0.832z" fill="" p-id="21806"></path></svg>