<?xml version="1.0" standalone="no"?><!DOCTYPE svg PUBLIC "-//W3C//DTD SVG 1.1//EN" "http://www.w3.org/Graphics/SVG/1.1/DTD/svg11.dtd"><svg t="1536562292359" class="icon" style="" viewBox="0 0 1025 1024" version="1.1" xmlns="http://www.w3.org/2000/svg" p-id="25576" xmlns:xlink="http://www.w3.org/1999/xlink" width="64.0625" height="64"><defs><style type="text/css"></style></defs><path d="M254.86851178 404.3915479c3.65170645 3.65170645 8.68854281 5.92316382 14.20758843 5.92316382l221.69987677 0c5.56004321 0 10.59687957-2.24314891 14.19587511-5.84800112l0-0.07516175c3.65073064-3.65170645 5.92218708-8.68756703 5.92218708-14.20075597L510.89403917 239.82072126c0-5.51416476-2.27145738-10.55002532-5.92218708-14.20173178l0-0.07418596c-3.59899554-3.605828-8.6358319-5.84995364-14.19587511-5.84995366L269.07610021 219.69484986c-5.51806887 0-10.555882 2.27340896-14.20758843 5.92413962l-0.07418596 0c-3.60387641 3.59899554-5.84702531 8.63387938-5.84702533 14.20173178l0 150.37007066c0 5.56492312 2.24314891 10.6007837 5.84702533 14.20075598L254.86851178 404.3915479z" fill="#006DCC" p-id="25577"></path><path d="M959.67617879 836.41546877L959.67617879 176.91785599c0-87.24367171-71.38056448-158.62423619-158.62325945-158.62423619L222.95390453 18.29361979c-87.24269497 0-158.62521197 71.38056448-158.62521198 158.6242362l0 659.49761278c0 87.24464751 71.382517 158.62423619 158.62521198 158.62423619l578.09803901 0C888.29463851 995.03970496 959.67617879 923.66011629 959.67617879 836.41546877zM619.18504968 181.38853637l179.06832554 0c11.19524816 0 20.35135761 9.15318112 20.35135761 20.3503818s-9.15610945 20.35038182-20.35135761 20.35038183L619.18504968 222.08929903c-11.19427141 0-20.34842928-9.15415787-20.34842927-20.3503818S607.99077733 181.38853637 619.18504968 181.38853637zM619.18504968 291.629857l179.06832554 0c11.19524816 0 20.35135761 9.15318112 20.35135761 20.34940507s-9.15610945 20.35038182-20.35135761 20.35038182L619.18504968 332.32964389c-11.19427141 0-20.34842928-9.15513366-20.34842927-20.35038181S607.99077733 291.629857 619.18504968 291.629857zM619.18504968 401.87117671l179.06832554 0c11.19524816 0 20.35135761 9.15415787 20.35135761 20.34940506 0 11.19622395-9.15610945 20.35038182-20.35135761 20.35038181L619.18504968 442.57096454c-11.19427141 0-20.34842928-9.15415787-20.34842927-20.35038182C598.83564366 411.02533457 607.99077733 401.87117671 619.18504968 401.87117671zM208.24556107 239.82072126c0-16.68208119 6.85732131-31.88727554 17.89053168-42.93317502l-0.03806925-0.0400218c11.01075951-11.01173531 26.22766718-17.85246242 42.97807671-17.85246241l221.69987677 0c16.68110444 0 31.88044213 6.85927385 42.92829415 17.89248326l0.03806926-0.04002179c11.00978277 11.01173531 17.85246242 26.22766718 17.85246242 42.97319679l0 150.37007068c0 16.74357709-6.84170291 31.96048475-17.85246242 42.97124427l-0.03806926-0.04002179c-11.04785202 11.03516195-26.2471897 17.89248326-42.92829415 17.89248326L269.07610021 451.01449861c-16.75041049 0-31.96731816-6.84072711-42.97807671-17.85246242l0.03806925-0.0400218c-11.03418617-11.04589948-17.89053168-26.2559747-17.89053168-42.93122247L208.24556107 239.82072126zM225.73978279 532.45604671l572.51847331 0c11.18451063 0 20.34550095 9.15513366 20.34550094 20.35038181 0 11.19524816-9.16099033 20.34940507-20.34550094 20.34940508L225.73978279 573.1558336c-11.18451063 0-20.34550095-9.15415787-20.34550095-20.34940508C205.39525763 541.61118037 214.55624795 532.45604671 225.73978279 532.45604671zM225.73978279 663.04774822l572.51847331 0c11.18451063 0 20.34550095 9.15415787 20.34550094 20.34940507 0 11.19622395-9.16099033 20.35038182-20.34550094 20.35038181L225.73978279 703.74753606c-11.18451063 0-20.34550095-9.15415787-20.34550095-20.35038182C205.39525763 672.20190609 214.55624795 663.04774822 225.73978279 663.04774822zM225.73978279 793.63945068l572.51847331 0c11.18451063 0 20.34550095 9.15318112 20.34550094 20.34940507s-9.16099033 20.35038182-20.34550094 20.35038181L225.73978279 834.33923756c-11.18451063 0-20.34550095-9.15513366-20.34550095-20.35038181S214.55624795 793.63945068 225.73978279 793.63945068z" fill="#006DCC" p-id="25578"></path></svg>